<svg width="34" height="33" viewBox="0 0 34 33" fill="none" xmlns="http://www.w3.org/2000/svg">
<mask id="mask0_13_3517" style="mask-type:luminance" maskUnits="userSpaceOnUse" x="0" y="0" width="34" height="33">
<path d="M33.5 0.149902H0.5V32.1499H33.5V0.149902Z" fill="white"/>
</mask>
<g mask="url(#mask0_13_3517)">
<path fill-rule="evenodd" clip-rule="evenodd" d="M4.5 4.90666C4.5 3.93643 5.25628 3.1499 6.18919 3.1499H27.8108C28.7437 3.1499 29.5 3.93643 29.5 4.90666V24.5823C29.5 27.1048 27.5338 29.1499 25.1081 29.1499H8.89189C6.46628 29.1499 4.5 27.1048 4.5 24.5823V4.90666ZM7.87838 6.66341V24.5823C7.87838 25.1644 8.33218 25.6364 8.89189 25.6364H25.1081C25.6678 25.6364 26.1216 25.1644 26.1216 24.5823V6.66341H7.87838Z" fill="#EE4141"/>
<path fill-rule="evenodd" clip-rule="evenodd" d="M14.5 21.6433C14.5 20.2662 15.6163 19.1499 16.9934 19.1499H17.0066C18.3837 19.1499 19.5 20.2662 19.5 21.6433V21.6566C19.5 23.0336 18.3837 24.1499 17.0066 24.1499H16.9934C15.6163 24.1499 14.5 23.0336 14.5 21.6566V21.6433Z" fill="#EE4141"/>
<path fill-rule="evenodd" clip-rule="evenodd" d="M17 9.1499C17.8284 9.1499 18.5 9.92479 18.5 10.8807V16.4191C18.5 17.375 17.8284 18.1499 17 18.1499C16.1716 18.1499 15.5 17.375 15.5 16.4191V10.8807C15.5 9.92479 16.1716 9.1499 17 9.1499Z" fill="#EE4141"/>
</g>
</svg>
