<svg width="22" height="21" viewBox="0 0 22 21" fill="none" xmlns="http://www.w3.org/2000/svg">
<path d="M21 10.2002C21 12.8524 19.9464 15.3959 18.0711 17.2713C16.1957 19.1466 13.6522 20.2002 11 20.2002C8.34784 20.2002 5.8043 19.1466 3.92893 17.2713C2.05357 15.3959 1 12.8524 1 10.2002C1 7.54804 2.05357 5.0045 3.92893 3.12913C5.8043 1.25377 8.34784 0.200195 11 0.200195C13.6522 0.200195 16.1957 1.25377 18.0711 3.12913C19.9464 5.0045 21 7.54804 21 10.2002ZM11.3587 7.5827C10.3854 7.9877 8.44125 8.8252 5.52625 10.0952C5.05375 10.2827 4.80583 10.4669 4.7825 10.6477C4.745 10.9514 5.12625 11.0715 5.645 11.2352L5.86375 11.304C6.37375 11.4702 7.06125 11.6639 7.4175 11.6715C7.7425 11.6798 8.10417 11.5465 8.5025 11.2715C11.2267 9.43312 12.6325 8.50395 12.72 8.48394C12.7825 8.46894 12.87 8.45145 12.9275 8.50395C12.985 8.55645 12.98 8.65394 12.9738 8.68019C12.9363 8.84144 11.44 10.2314 10.6663 10.9514C10.425 11.1764 10.2537 11.3352 10.2188 11.3715C10.1417 11.4502 10.0634 11.5277 9.98375 11.604C9.50875 12.0614 9.15375 12.404 10.0025 12.964C10.4112 13.234 10.7388 13.4552 11.065 13.6777C11.42 13.9202 11.775 14.1615 12.235 14.464C12.3517 14.5406 12.4642 14.6185 12.5725 14.6977C12.9863 14.9927 13.36 15.2577 13.8188 15.2152C14.0863 15.1902 14.3625 14.9402 14.5025 14.1902C14.8337 12.419 15.485 8.5827 15.635 7.00145C15.6444 6.87001 15.639 6.73792 15.6187 6.6077C15.6066 6.50271 15.5558 6.406 15.4763 6.33645C15.3624 6.25824 15.2269 6.2176 15.0887 6.2202C14.7137 6.22645 14.135 6.4277 11.3587 7.5827Z" fill="white"/>
</svg>
