<svg width="23" height="23" viewBox="0 0 23 23" fill="none" xmlns="http://www.w3.org/2000/svg">
<path fill-rule="evenodd" clip-rule="evenodd" d="M14.25 1.34619H10.5316C8.84701 1.34617 7.51267 1.34616 6.4684 1.48657C5.39368 1.63106 4.52381 1.9355 3.8378 2.6215C3.15181 3.3075 2.84736 4.17737 2.70288 5.25209C2.56247 6.29637 2.56248 7.63069 2.5625 9.3153V14.867C2.5625 16.5832 3.82021 18.0057 5.46422 18.263C5.59069 18.9633 5.83274 19.5611 6.31932 20.0477C6.87108 20.5995 7.5658 20.8368 8.3909 20.9477C9.18562 21.0545 10.196 21.0545 11.4497 21.0545H14.3003C15.554 21.0545 16.5644 21.0545 17.3591 20.9477C18.1842 20.8368 18.8789 20.5995 19.4307 20.0477C19.9825 19.4959 20.2198 18.8013 20.3307 17.9762C20.4375 17.1814 20.4375 16.171 20.4375 14.9173V10.2334C20.4375 8.97977 20.4375 7.96931 20.3307 7.17459C20.2198 6.34949 19.9825 5.65477 19.4307 5.10301C18.9441 4.61643 18.3463 4.37438 17.646 4.24791C17.3887 2.6039 15.9662 1.34619 14.25 1.34619ZM16.2019 4.1156C15.9243 3.3044 15.1553 2.72119 14.25 2.72119H10.5833C8.83541 2.72119 7.59363 2.72265 6.65161 2.84931C5.72936 2.97329 5.19802 3.20582 4.81008 3.59377C4.42213 3.98171 4.1896 4.51305 4.06561 5.4353C3.93896 6.37733 3.9375 7.61911 3.9375 9.36702V14.867C3.9375 15.7723 4.52072 16.5413 5.33191 16.8189C5.31248 16.2598 5.31249 15.6276 5.3125 14.9173V10.2334C5.31248 8.97977 5.31246 7.96931 5.41931 7.17459C5.53025 6.34949 5.76756 5.65477 6.31932 5.10301C6.87108 4.55125 7.5658 4.31394 8.3909 4.203C9.18562 4.09615 10.196 4.09617 11.4497 4.09619H14.3003C15.0106 4.09618 15.6428 4.09617 16.2019 4.1156ZM7.29159 6.07528C7.54529 5.82159 7.90149 5.65617 8.57411 5.56575C9.26651 5.47265 10.1842 5.47119 11.5 5.47119H14.25C15.5658 5.47119 16.4835 5.47265 17.1759 5.56575C17.8486 5.65617 18.2047 5.82159 18.4584 6.07528C18.7122 6.32898 18.8775 6.68518 18.968 7.3578C19.061 8.05021 19.0625 8.96789 19.0625 10.2837V14.867C19.0625 16.1828 19.061 17.1005 18.968 17.7929C18.8775 18.4656 18.7122 18.8217 18.4584 19.0754C18.2047 19.3292 17.8486 19.4945 17.1759 19.585C16.4835 19.6781 15.5658 19.6795 14.25 19.6795H11.5C10.1842 19.6795 9.26651 19.6781 8.57411 19.585C7.90149 19.4945 7.54529 19.3292 7.29159 19.0754C7.0379 18.8217 6.87248 18.4656 6.78205 17.7929C6.68896 17.1005 6.6875 16.1828 6.6875 14.867V10.2837C6.6875 8.96789 6.68896 8.05021 6.78205 7.3578C6.87248 6.68518 7.0379 6.32898 7.29159 6.07528Z" fill="white"/>
</svg>
