<svg width="34" height="34" viewBox="0 0 34 34" fill="none" xmlns="http://www.w3.org/2000/svg">
<path d="M32.2308 18.4189C32.2308 15.9439 30.6442 13.7863 28.4231 13.0247C28.2327 6.86895 23.2192 1.91895 17 1.91895C10.7808 1.91895 5.7673 6.86895 5.57692 13.0247C3.35576 13.7863 1.76923 15.9439 1.76923 18.4189C1.76923 21.0843 3.60961 23.3055 6.02115 23.9401C7.4173 28.8266 11.7962 32.3805 17 32.3805C22.2038 32.3805 26.5827 28.8266 27.9788 23.9401C30.3904 23.3055 32.2308 21.0843 32.2308 18.4189ZM25.8846 12.7074L25.8212 12.6439L26.075 12.7074H25.8846ZM17 29.842C12.1135 29.842 8.11538 25.717 8.11538 20.7036C8.11538 19.4343 8.36923 17.5305 8.87692 16.3882C8.94038 16.1978 9.0673 16.0074 9.13077 15.817C11.0346 15.0555 12.6846 13.7228 13.7635 12.0093C15.9846 14.8016 19.475 16.7055 23.3461 16.7055C24.6788 16.7055 25.0596 16.7689 25.1865 16.7055C25.4404 17.5305 25.6942 18.5459 25.7577 19.5613C25.3769 21.1478 22.9019 22.6709 19.4115 22.8613C19.2846 22.5439 18.9038 22.2266 18.5231 22.2266H15.35C14.8423 22.2266 14.4615 22.7343 14.4615 23.242V25.1459C14.4615 25.6536 14.8423 26.0343 15.35 26.0343H18.5231C18.9673 26.0343 19.2846 25.8439 19.4115 25.4632C21.6961 25.3997 23.7269 24.7651 25.3135 23.8132C24.1077 27.3036 20.8712 29.842 17 29.842Z" fill="#E74343"/>
</svg>
