<svg width="68" height="48" viewBox="0 0 68 48" fill="none" xmlns="http://www.w3.org/2000/svg">
<path fill-rule="evenodd" clip-rule="evenodd" d="M27.0334 32.8517L27.0312 13.6768L45.3404 23.2973L27.0334 32.8517ZM67.2348 10.3541C67.2348 10.3541 66.5719 5.65159 64.5411 3.58077C61.9639 0.861614 59.0755 0.848792 57.7519 0.690975C48.2691 -1.00136e-05 34.0449 0 34.0449 0H34.0152C34.0152 0 19.791 -1.00136e-05 10.3082 0.690975C8.98254 0.848792 6.09618 0.861614 3.51689 3.58077C1.48607 5.65159 0.825346 10.3541 0.825346 10.3541C0.825346 10.3541 0.147705 15.8777 0.147705 21.3992V26.5774C0.147705 32.101 0.825346 37.6224 0.825346 37.6224C0.825346 37.6224 1.48607 42.325 3.51689 44.3958C6.09618 47.115 9.48228 47.0296 10.99 47.3133C16.4112 47.8379 34.0301 48 34.0301 48C34.0301 48 48.2691 47.9787 57.7519 47.2877C59.0755 47.1278 61.9639 47.115 64.5411 44.3958C66.5719 42.325 67.2348 37.6224 67.2348 37.6224C67.2348 37.6224 67.9124 32.101 67.9124 26.5774V21.3992C67.9124 15.8777 67.2348 10.3541 67.2348 10.3541Z" fill="#CE1312"/>
</svg>
